<svg width="401" height="472" viewBox="0 0 401 472" fill="none" xmlns="http://www.w3.org/2000/svg">
<path d="M3 149V471C52.6 472.2 88.6667 434.833 100.5 416V282.5L41.6682 201L3 149Z" fill="#5C040A"/>
<path d="M400.5 169.5C400.5 263.112 328.89 340.5 216.5 340.5C104.11 340.5 0 263.112 0 169.5C0 75.8877 84.6101 0 197 0C303.5 0 400.5 75.8877 400.5 169.5Z" fill="url(#paint0_linear_12_25)"/>
<path d="M365.5 158.423C365.5 230.453 311.86 290 227.672 290C143.485 290 66 228 66 153C71 78.5 128.878 28 213.066 28C292.841 28 365.5 86.3923 365.5 158.423Z" fill="white"/>
<path d="M335.455 109.184C345.316 124.46 351 141.722 351 160C351 222.408 302.105 274 225.367 274C207.792 274 190.539 271.18 174.38 266.055C182.021 267.332 189.912 268 198 268C271.013 262 336 212.615 342.5 144.596C342.5 132.079 340.005 120.203 335.455 109.184Z" fill="#D0D0D1"/>
<path d="M115.5 128C142.5 70.945 185.998 75.4475 196.999 70.9449C212 64.8054 203.551 48.9647 193.5 49.9995C125.5 57 98.2944 102.5 94.4991 118.445C91.2152 132.241 112.46 134.425 115.5 128Z" fill="#6D030A"/>
<path d="M61.5 274.625V220.042C111.565 299.241 228 294 228 294C268.5 294 315.5 284.5 354.5 243C354.5 243 344.869 273.356 308.5 294C254.852 324.451 191.772 327.602 168.272 325.462C166.744 325.323 107.478 323.856 61.5 274.625Z" fill="url(#paint1_linear_12_25)"/>
<path d="M30.0007 89C82.9999 9.5 181.96 13.7651 181.96 13.7651C181.96 13.7651 -5.5001 50.5 63.5007 223C65.3576 227.642 64.1231 365.251 63.5007 368C51.5002 421 3.00017 440 3.00017 440L0.668213 156C0.668213 156 5.07463 126.39 30.0007 89Z" fill="url(#paint2_linear_12_25)"/>
<defs>
<linearGradient id="paint0_linear_12_25" x1="358.5" y1="25.5" x2="96.5" y2="274" gradientUnits="userSpaceOnUse">
<stop offset="0.109021" stop-color="#FF7D87"/>
<stop offset="0.394231" stop-color="#62151B"/>
</linearGradient>
<linearGradient id="paint1_linear_12_25" x1="356" y1="255.5" x2="61.5" y2="296.5" gradientUnits="userSpaceOnUse">
<stop stop-color="#F6AFAF"/>
<stop offset="0.662467" stop-color="#AE0C17"/>
<stop offset="1" stop-color="#81030B"/>
</linearGradient>
<linearGradient id="paint2_linear_12_25" x1="126" y1="0.499991" x2="15.5" y2="424.5" gradientUnits="userSpaceOnUse">
<stop stop-color="#FFDDDD"/>
<stop offset="0.0961538" stop-color="#5E0004"/>
<stop offset="0.701923" stop-color="#88030D"/>
</linearGradient>
</defs>
</svg>
