<svg width="401" height="472" viewBox="0 0 401 472" fill="none" xmlns="http://www.w3.org/2000/svg">
<path d="M2.99976 149V471C52.5998 472.2 88.6664 434.833 100.5 416V282.5L41.668 201L2.99976 149Z" fill="#5C040A"/>
<path d="M197 0C303.5 0.000115978 400.5 75.8878 400.5 169.5C400.5 263.112 328.89 340.5 216.5 340.5C104.11 340.5 0 263.112 0 169.5C0 75.8877 84.6101 0 197 0ZM213.065 28C128.878 28 71 78.5 66 153C66 228 143.485 290 227.672 290C311.859 290 365.5 230.453 365.5 158.423C365.5 86.3923 292.841 28.0001 213.065 28Z" fill="url(#paint0_linear_12_14)"/>
<path d="M335.455 109.184C345.316 124.46 351 141.722 351 160C351 222.408 302.105 274 225.367 274C207.792 274 190.539 271.18 174.38 266.055C182.02 267.332 189.912 268 198 268C271.013 262 336 212.615 342.5 144.596C342.5 132.079 340.005 120.203 335.455 109.184Z" fill="#D0D0D1"/>
<path d="M115.5 128C142.5 70.9452 185.997 75.4478 196.999 70.9451C211.999 64.8057 203.551 48.965 193.499 49.9997C125.5 57.0002 98.2942 102.5 94.4989 118.445C91.215 132.241 112.459 134.425 115.5 128Z" fill="#6D030A"/>
<path d="M61.4998 274.625V220.042C111.565 299.241 228 294 228 294C268.5 294 315.5 284.5 354.5 243C354.5 243 344.869 273.356 308.5 294C254.852 324.451 191.772 327.602 168.272 325.462C166.744 325.323 107.478 323.856 61.4998 274.625Z" fill="url(#paint1_linear_12_14)"/>
<path d="M30.0004 89C82.9997 9.5 181.959 13.7651 181.959 13.7651C181.959 13.7651 -5.50034 50.5 63.5004 223C65.3574 227.642 64.1229 365.251 63.5004 368C51.4999 421 2.99993 440 2.99993 440L0.667969 156C0.667969 156 5.07439 126.39 30.0004 89Z" fill="url(#paint2_linear_12_14)"/>
<defs>
<linearGradient id="paint0_linear_12_14" x1="66.168" y1="349.5" x2="431.168" y2="51.5" gradientUnits="userSpaceOnUse">
<stop offset="0.528846" stop-color="#61040B"/>
<stop offset="0.802885" stop-color="#FF7D87"/>
</linearGradient>
<linearGradient id="paint1_linear_12_14" x1="356" y1="255.5" x2="61.4998" y2="296.5" gradientUnits="userSpaceOnUse">
<stop stop-color="#F6AFAF"/>
<stop offset="0.662467" stop-color="#AE0C17"/>
<stop offset="1" stop-color="#81030B"/>
</linearGradient>
<linearGradient id="paint2_linear_12_14" x1="126" y1="0.499991" x2="15.4997" y2="424.5" gradientUnits="userSpaceOnUse">
<stop stop-color="#FFDDDD"/>
<stop offset="0.0961538" stop-color="#5E0004"/>
<stop offset="0.701923" stop-color="#88030D"/>
</linearGradient>
</defs>
</svg>
